<svg width="1200" height="720" viewBox="0 0 1200 720" fill="none" xmlns="http://www.w3.org/2000/svg">
<g clip-path="url(#clip0_11_110)">
<mask id="mask0_11_110" style="mask-type:luminance" maskUnits="userSpaceOnUse" x="0" y="0" width="1200" height="720">
<path d="M1200 0H0V720H1200V0Z" fill="white"/>
</mask>
<g mask="url(#mask0_11_110)">
<path d="M1200 0H0V720H1200V0Z" fill="white"/>
<mask id="mask1_11_110" style="mask-type:luminance" maskUnits="userSpaceOnUse" x="-278" y="-367" width="1788" height="1842">
<path d="M1510 -367H-278V1475H1510V-367Z" fill="white"/>
</mask>
<g mask="url(#mask1_11_110)">
<path d="M1231.68 15.708H-35.0076V883.56H1231.68V15.708Z" fill="white"/>
<path d="M-164.699 439.409C-166.901 362.254 -168.387 284.637 -163.314 207.551C-159.015 142.222 -150.145 76.3902 -121.226 16.5146C-64.6865 -100.548 48.9775 -174.343 162.366 -234.402C261.417 -286.865 362.258 -345.501 475.952 -361.235C573.821 -374.779 671.437 -350.129 764.578 -323.225C831.883 -303.784 900.856 -285.783 965.326 -258.481C1032.2 -230.163 1095.02 -191.071 1155.95 -152.408C1244.58 -94.5505 1301.01 -30.5112 1360.65 54.6048C1434.06 159.374 1490.45 270.605 1503.58 398.754C1513.82 498.73 1504.6 596.616 1493.05 696.039C1486.98 748.359 1482.08 800.803 1475.54 853.073C1457.16 1000.16 1430.79 1187.41 1326.81 1302.94C1297.9 1335.07 1262.73 1361.46 1224.78 1382.86C1177.25 1409.67 1126 1425.71 1072.82 1438.29C892.085 1475.15 702.184 1478.54 518.306 1467.58C413.593 1461.34 302.854 1452.57 204.583 1414.6C96.1071 1372.69 23.5032 1308.02 -52.9329 1224.89C-110.104 1162.72 -167.189 1098.3 -204.681 1022.74C-245.134 941.208 -263.463 850.506 -271.439 760.911C-279.504 670.321 -277.934 579.579 -258.194 490.498C-242.429 424.377 -215.849 362.503 -191.767 299.027C-177.293 260.877 -165.987 221.814 -153.305 183.103" fill="#FED3CE"/>
<path d="M-164.699 439.409C-166.901 362.254 -168.387 284.637 -163.314 207.551C-159.015 142.222 -150.145 76.3902 -121.226 16.5146C-64.6865 -100.548 48.9775 -174.343 162.366 -234.402C261.417 -286.865 362.258 -345.501 475.952 -361.235C573.821 -374.779 671.437 -350.129 764.578 -323.225C831.883 -303.784 900.856 -285.783 965.326 -258.481C1032.2 -230.163 1095.02 -191.071 1155.95 -152.408C1244.58 -94.5505 1301.01 -30.5112 1360.65 54.6048C1434.06 159.374 1490.45 270.605 1503.58 398.754C1513.82 498.73 1504.6 596.616 1493.05 696.039C1486.98 748.359 1482.08 800.803 1475.54 853.073C1457.16 1000.16 1430.79 1187.41 1326.81 1302.94C1297.9 1335.07 1262.73 1361.46 1224.78 1382.86C1177.25 1409.67 1126 1425.71 1072.82 1438.29C892.085 1475.15 702.184 1478.54 518.306 1467.58C413.593 1461.34 302.854 1452.57 204.583 1414.6C96.1071 1372.69 23.5032 1308.02 -52.9329 1224.89C-110.104 1162.72 -167.189 1098.3 -204.681 1022.74C-245.134 941.208 -263.463 850.506 -271.439 760.911C-279.504 670.321 -277.934 579.579 -258.194 490.498C-242.429 424.377 -215.849 362.503 -191.767 299.027C-177.293 260.877 -165.987 221.814 -153.305 183.103" stroke="white" stroke-width="5" stroke-miterlimit="10" stroke-linecap="round" stroke-linejoin="round"/>
<path d="M250.529 449.634C250.529 279.695 406.249 141.932 598.339 141.932C790.429 141.932 946.149 279.695 946.149 449.634C946.149 619.573 790.429 757.336 598.339 757.336C406.249 757.336 250.529 619.573 250.529 449.634Z" fill="#FF6157" stroke="white" stroke-width="5" stroke-miterlimit="10" stroke-linecap="round" stroke-linejoin="round"/>
</g>
</g>
</g>
<defs>
<clipPath id="clip0_11_110">
<rect width="1200" height="720" fill="white"/>
</clipPath>
</defs>
</svg>
